<svg width="16" height="16" viewBox="0 0 16 16" fill="none" xmlns="http://www.w3.org/2000/svg">
<path fill-rule="evenodd" clip-rule="evenodd" d="M13.3333 9.33333C14.0697 9.33333 14.6667 8.73638 14.6667 8C14.6667 7.26362 14.0697 6.66666 13.3333 6.66666C12.597 6.66666 12 7.26362 12 8C12 8.73638 12.597 9.33333 13.3333 9.33333Z" fill="#4D4D4D"/>
<path fill-rule="evenodd" clip-rule="evenodd" d="M7.99999 9.33333C8.73637 9.33333 9.33332 8.73638 9.33332 8C9.33332 7.26362 8.73637 6.66666 7.99999 6.66666C7.26361 6.66666 6.66666 7.26362 6.66666 8C6.66666 8.73638 7.26361 9.33333 7.99999 9.33333Z" fill="#4D4D4D"/>
<path fill-rule="evenodd" clip-rule="evenodd" d="M2.66666 9.33333C3.40304 9.33333 3.99999 8.73638 3.99999 8C3.99999 7.26362 3.40304 6.66666 2.66666 6.66666C1.93028 6.66666 1.33333 7.26362 1.33333 8C1.33333 8.73638 1.93028 9.33333 2.66666 9.33333Z" fill="#4D4D4D"/>
</svg>
